<svg preserveAspectRatio="none" overflow="visible" style="display: block;" width="41.5452" height="41.5452" viewBox="0 0 41.5452 41.5452" fill="none" xmlns="http://www.w3.org/2000/svg">
<g id="Chess Pieces">
<path id="Stroke" d="M15.0025 2.88509C15.4229 2.88509 15.817 2.99749 16.1565 3.19387C16.496 2.99749 16.8902 2.88509 17.3106 2.88509H23.6577C24.0781 2.88509 24.4723 2.99749 24.8118 3.19387C25.1513 2.99749 25.5454 2.88509 25.9658 2.88509H31.736C33.0107 2.88509 34.044 3.91845 34.044 5.19316V10.3863C34.044 11.1128 33.702 11.7969 33.1208 12.2328L29.5594 14.9038L30.5678 23.9798C30.8348 26.3827 31.9532 27.6018 33.5824 29.7741C33.8821 30.1736 34.044 30.6595 34.044 31.1589V35.775C34.044 37.0497 33.0107 38.0831 31.736 38.0831H9.23232C7.95761 38.0831 6.92425 37.0497 6.92425 35.775V31.1589C6.92425 30.6595 7.08623 30.1736 7.38586 29.7741C9.01508 27.6018 10.1335 26.3827 10.4005 23.9798L11.4089 14.9038L7.84748 12.2328C7.26629 11.7969 6.92425 11.1128 6.92425 10.3863V5.19316C6.92425 3.91845 7.95761 2.88509 9.23232 2.88509H15.0025Z" fill="#16272A" style="fill:#16272A;fill:color(display-p3 0.0863 0.1529 0.1647);fill-opacity:1;"/>
<g id="Union">
<path d="M9.23223 5.19315H15.0024V8.65525H17.3105V5.19315H23.6576V8.65525H25.9657V5.19315H31.7359V10.3863L27.1197 13.8484L28.2738 24.2347H12.6943L13.8484 13.8484L9.23223 10.3863V5.19315Z" fill="#0078FF" style="fill:#0078FF;fill:color(display-p3 0.0000 0.4690 1.0000);fill-opacity:1;"/>
<path d="M12.6943 26.5428H28.2738L31.7359 31.1589V35.775H9.23223V31.1589L12.6943 26.5428Z" fill="#0078FF" style="fill:#0078FF;fill:color(display-p3 0.0000 0.4690 1.0000);fill-opacity:1;"/>
</g>
</g>
</svg>
